<?xml version="1.0" encoding="utf-8"?>
<svg version="1.1" xmlns="http://www.w3.org/2000/svg" xmlns:xlink="http://www.w3.org/1999/xlink" x="0px" y="0px"
	 viewBox="0 0 800 800" style="enable-background:new 0 0 800 800;" xml:space="preserve">
<g id="Background">
	<rect style="fill:url(#SVGID_1_);" width="800" height="800"/>
</g>
<g id="Objects">
	<g>
		<g style="opacity:0.2;">
			
				<line style="fill:none;stroke:#E29866;stroke-width:1.0941;stroke-miterlimit:10;" x1="671.899" y1="335.303" x2="672.16" y2="472.878"/>
			
				<line style="fill:#E29866;stroke:#E29866;stroke-width:1.0941;stroke-miterlimit:10;" x1="318.057" y1="677.148" x2="474.955" y2="676.672"/>
			<polygon style="fill:none;stroke:#E29866;stroke-width:1.0941;stroke-miterlimit:10;" points="593.934,608.257 318.057,677.148 
				120.455,472.679 198.73,199.315 474.608,130.422 672.21,334.893 			"/>
			<polygon style="fill:none;stroke:#E29866;stroke-width:1.0941;stroke-miterlimit:10;" points="672.16,472.878 474.411,677.204 
				198.584,608.115 120.504,334.695 318.252,130.366 594.081,199.457 			"/>
			<polygon style="fill:none;stroke:#E29866;stroke-width:1.0941;stroke-miterlimit:10;" points="176.547,276.788 318.627,322.713 
				268.35,181.93 			"/>
			<polyline style="fill:none;stroke:#E29866;stroke-width:1.0941;stroke-miterlimit:10;" points="268.193,625.551 318.784,323.073 
				616.208,276.945 584.891,385.525 524.401,625.969 			"/>
			
				<line style="fill:none;stroke:#E29866;stroke-width:1.0941;stroke-miterlimit:10;" x1="140.208" y1="403.693" x2="378.367" y2="500.147"/>
			<path style="fill:none;stroke:#E29866;stroke-width:1.0941;stroke-miterlimit:10;" d="M524.401,625.551
				c-0.088,0.092-205.617-302.478-205.617-302.478"/>
			
				<polygon style="fill:none;stroke:#E29866;stroke-width:1.0941;stroke-linecap:round;stroke-linejoin:round;stroke-miterlimit:10;" points="
				374.878,505.924 396.17,149.883 429.57,433.775 			"/>
			<path style="fill:none;stroke:#E29866;stroke-width:1.0941;stroke-miterlimit:10;" d="M369.063,463.856"/>
			
				<polygon style="fill:none;stroke:#E29866;stroke-width:1.0941;stroke-linecap:round;stroke-linejoin:round;stroke-miterlimit:10;" points="
				594.081,199.457 429.57,433.775 671.899,335.303 			"/>
			<polygon style="fill:none;stroke:#E29866;stroke-width:1.0941;stroke-miterlimit:10;" points="318.252,130.366 176.547,530.72 
				671.899,468.787 			"/>
			<polygon style="fill:none;stroke:#E29866;stroke-width:1.0941;stroke-miterlimit:10;" points="120.455,472.679 318.784,323.073 
				120.504,334.695 			"/>
			<path style="fill:none;stroke:#E29866;stroke-width:1.0941;stroke-miterlimit:10;" d="M198.584,608.115
				c0,0,363.669-120.617,361.854-125.392"/>
			<path style="fill:none;stroke:#E29866;stroke-width:1.0941;stroke-miterlimit:10;" d="M120.504,334.695l78.226-135.38
				l119.522-68.95c0,0,79.894,532.056,78.081,527.281"/>
			
				<line style="fill:none;stroke:#E29866;stroke-width:1.0941;stroke-miterlimit:10;" x1="593.934" y1="608.257" x2="429.57" y2="433.775"/>
			<path style="fill:none;stroke:#E29866;stroke-width:1.0941;stroke-miterlimit:10;" d="M176.547,530.72
				c4.473-1.594,118.717-67.023,118.717-67.023l101.069,193.95l78.275-527.225L318.627,322.713l-142.08-45.926"/>
			<polygon style="fill:none;stroke:#E29866;stroke-width:1.0941;stroke-miterlimit:10;" points="428.915,434.167 211.315,432.492 
				198.73,199.315 342.637,293.115 			"/>
			<polyline style="fill:none;stroke:#E29866;stroke-width:1.0941;stroke-miterlimit:10;" points="318.784,126.571 474.608,130.422 
				594.081,199.457 455.165,261.384 			"/>
			
				<line style="fill:none;stroke:#E29866;stroke-width:1.0941;stroke-miterlimit:10;" x1="593.934" y1="608.257" x2="671.899" y2="468.787"/>
			
				<line style="fill:none;stroke:#E29866;stroke-width:1.0941;stroke-miterlimit:10;" x1="474.411" y1="677.204" x2="594.216" y2="607.742"/>
			
				<line style="fill:none;stroke:#E29866;stroke-width:1.0941;stroke-miterlimit:10;" x1="198.585" y1="608.604" x2="318.057" y2="677.148"/>
			
				<line style="fill:none;stroke:#E29866;stroke-width:1.0941;stroke-miterlimit:10;" x1="120.902" y1="472.932" x2="198.584" y2="611.222"/>
			<path style="fill:#E29866;" d="M678.702,468.739c0,3.478-2.818,6.298-6.297,6.298c-3.478,0-6.296-2.82-6.296-6.298
				c0-3.477,2.818-6.297,6.296-6.297C675.884,462.442,678.702,465.263,678.702,468.739z"/>
			<path style="fill:#E29866;" d="M592.266,385.585c0,3.478-2.818,6.297-6.297,6.297c-3.478,0-6.296-2.82-6.296-6.297
				c0-3.477,2.818-6.297,6.296-6.297C589.447,379.288,592.266,382.108,592.266,385.585z"/>
			<path style="fill:#E29866;" d="M677.924,335.094c0,3.477-2.818,6.297-6.296,6.297c-3.479,0-6.298-2.82-6.298-6.297
				c0-3.478,2.819-6.297,6.298-6.297C675.105,328.797,677.924,331.617,677.924,335.094z"/>
			<path style="fill:#E29866;" d="M599.94,199.138c0,3.477-2.818,6.296-6.295,6.296c-3.478,0-6.298-2.819-6.298-6.296
				c0-3.479,2.819-6.297,6.298-6.297C597.121,192.84,599.94,195.659,599.94,199.138z"/>
			<path style="fill:#E29866;" d="M620.389,276.6c0,2.406-1.95,4.358-4.358,4.358c-2.407,0-4.358-1.952-4.358-4.358
				c0-2.408,1.951-4.359,4.358-4.359C618.438,272.241,620.389,274.192,620.389,276.6z"/>
			<path style="fill:#E29866;" d="M560.86,215.256c0,3.478-2.818,6.298-6.297,6.298c-3.478,0-6.298-2.82-6.298-6.298
				c0-3.478,2.82-6.296,6.298-6.296C558.042,208.96,560.86,211.778,560.86,215.256z"/>
			<path style="fill:#E29866;" d="M530.994,625.2c0,3.477-2.818,6.298-6.297,6.298c-3.478,0-6.296-2.82-6.296-6.298
				s2.818-6.297,6.296-6.297C528.176,618.903,530.994,621.723,530.994,625.2z"/>
			<path style="fill:#E29866;" d="M599.85,608.276c0,3.477-2.819,6.298-6.298,6.298c-3.478,0-6.296-2.821-6.296-6.298
				c0-3.477,2.818-6.298,6.296-6.298C597.03,601.979,599.85,604.8,599.85,608.276z"/>
			<path style="fill:#E29866;" d="M514.898,404.025c0,3.477-2.818,6.296-6.297,6.296c-3.478,0-6.297-2.819-6.297-6.296
				c0-3.478,2.819-6.298,6.297-6.298C512.08,397.727,514.898,400.547,514.898,404.025z"/>
			<path style="fill:#E29866;" d="M417.974,307.236c0,2.406-1.949,4.358-4.358,4.358c-2.407,0-4.358-1.952-4.358-4.358
				c0-2.408,1.951-4.359,4.358-4.359C416.024,302.876,417.974,304.828,417.974,307.236z"/>
			<path style="fill:#E29866;" d="M454.175,302.859c0,2.406-1.95,4.358-4.358,4.358c-2.407,0-4.358-1.952-4.358-4.358
				c0-2.409,1.951-4.359,4.358-4.359C452.225,298.5,454.175,300.451,454.175,302.859z"/>
			<path style="fill:#E29866;" d="M458.371,261.859c0,1.963-1.59,3.555-3.555,3.555c-1.963,0-3.555-1.592-3.555-3.555
				c0-1.964,1.592-3.556,3.555-3.556C456.781,258.304,458.371,259.895,458.371,261.859z"/>
			<path style="fill:#E29866;" d="M572.371,580.859c0,1.963-1.59,3.555-3.555,3.555c-1.963,0-3.555-1.592-3.555-3.555
				c0-1.965,1.592-3.556,3.555-3.556C570.781,577.304,572.371,578.894,572.371,580.859z"/>
			<path style="fill:#E29866;" d="M271.371,624.859c0,1.963-1.59,3.555-3.555,3.555c-1.963,0-3.555-1.592-3.555-3.555
				c0-1.965,1.592-3.556,3.555-3.556C269.781,621.304,271.371,622.894,271.371,624.859z"/>
			<path style="fill:#E29866;" d="M182.119,276.859c0,2.928-2.372,5.303-5.303,5.303c-2.928,0-5.303-2.375-5.303-5.303
				c0-2.93,2.374-5.304,5.303-5.304C179.748,271.556,182.119,273.929,182.119,276.859z"/>
			<path style="fill:#E29866;" d="M518.19,317.01c0,3.478-2.818,6.298-6.298,6.298c-3.477,0-6.298-2.82-6.298-6.298
				c0-3.478,2.821-6.296,6.298-6.296C515.371,310.714,518.19,313.532,518.19,317.01z"/>
			<path style="fill:#E29866;" d="M566.863,482.779c0,3.477-2.818,6.298-6.298,6.298c-3.477,0-6.297-2.821-6.297-6.298
				c0-3.479,2.82-6.298,6.297-6.298C564.045,476.481,566.863,479.3,566.863,482.779z"/>
			<path style="fill:#E29866;" d="M435.213,434.167c0,3.478-2.818,6.298-6.298,6.298c-3.477,0-6.298-2.82-6.298-6.298
				c0-3.477,2.821-6.298,6.298-6.298C432.395,427.869,435.213,430.69,435.213,434.167z"/>
			<path style="fill:#E29866;" d="M390.96,358.881c0,3.477-2.819,6.296-6.295,6.296c-3.478,0-6.298-2.819-6.298-6.296
				c0-3.479,2.82-6.298,6.298-6.298C388.142,352.583,390.96,355.402,390.96,358.881z"/>
			<path style="fill:#E29866;" d="M385.15,412.272c0,2.406-1.95,4.358-4.358,4.358c-2.407,0-4.358-1.952-4.358-4.358
				c0-2.408,1.951-4.359,4.358-4.359C383.2,407.913,385.15,409.864,385.15,412.272z"/>
			<path style="fill:#E29866;" d="M368.738,431.967c0,2.406-1.95,4.358-4.358,4.358c-2.407,0-4.358-1.952-4.358-4.358
				c0-2.408,1.951-4.359,4.358-4.359C366.788,427.607,368.738,429.559,368.738,431.967z"/>
			<path style="fill:#E29866;" d="M358.891,377.26c0,2.406-1.95,4.358-4.358,4.358c-2.408,0-4.358-1.952-4.358-4.358
				c0-2.408,1.951-4.359,4.358-4.359C356.941,372.901,358.891,374.852,358.891,377.26z"/>
			<path style="fill:#E29866;" d="M272.779,184.265c0,3.478-2.819,6.297-6.296,6.297c-3.478,0-6.297-2.819-6.297-6.297
				c0-3.477,2.819-6.297,6.297-6.297C269.96,177.968,272.779,180.788,272.779,184.265z"/>
			<path style="fill:#E29866;" d="M402.981,149.252c0,3.478-2.819,6.297-6.297,6.297c-3.478,0-6.297-2.819-6.297-6.297
				c0-3.477,2.819-6.297,6.297-6.297C400.162,142.956,402.981,145.775,402.981,149.252z"/>
			<path style="fill:#E29866;" d="M349.383,293.233c0,3.477-2.818,6.295-6.295,6.295c-3.478,0-6.298-2.819-6.298-6.295
				c0-3.479,2.82-6.298,6.298-6.298C346.565,286.935,349.383,289.754,349.383,293.233z"/>
			<path style="fill:#E29866;" d="M409.56,215.55c0,3.477-2.818,6.295-6.295,6.295c-3.479,0-6.298-2.818-6.298-6.295
				c0-3.479,2.819-6.297,6.298-6.297C406.742,209.252,409.56,212.071,409.56,215.55z"/>
			<path style="fill:#E29866;" d="M260.419,302.859c0,2.406-1.95,4.358-4.358,4.358c-2.407,0-4.358-1.952-4.358-4.358
				c0-2.409,1.951-4.359,4.358-4.359C258.469,298.5,260.419,300.451,260.419,302.859z"/>
			<path style="fill:#E29866;" d="M281.207,250.341c0,2.406-1.95,4.358-4.358,4.358c-2.407,0-4.358-1.952-4.358-4.358
				c0-2.408,1.951-4.359,4.358-4.359C279.258,245.981,281.207,247.933,281.207,250.341z"/>
			<path style="fill:#E29866;" d="M480.989,129.914c0,3.478-2.818,6.298-6.298,6.298c-3.477,0-6.298-2.82-6.298-6.298
				c0-3.478,2.821-6.296,6.298-6.296C478.171,123.617,480.989,126.436,480.989,129.914z"/>
			<path style="fill:#E29866;" d="M324.528,129.914c0,3.478-2.819,6.298-6.298,6.298c-3.477,0-6.297-2.82-6.297-6.298
				c0-3.478,2.821-6.296,6.297-6.296C321.71,123.617,324.528,126.436,324.528,129.914z"/>
			<path style="fill:#E29866;" d="M205.268,198.844c0,3.478-2.819,6.297-6.298,6.297c-3.477,0-6.297-2.82-6.297-6.297
				c0-3.478,2.821-6.297,6.297-6.297C202.449,192.547,205.268,195.366,205.268,198.844z"/>
			<path style="fill:#E29866;" d="M324.821,323.021c0,3.477-2.819,6.296-6.298,6.296c-3.477,0-6.296-2.819-6.296-6.296
				c0-3.479,2.819-6.298,6.296-6.298C322.002,316.723,324.821,319.542,324.821,323.021z"/>
			<path style="fill:#E29866;" d="M167.743,330.878c0,3.478-2.819,6.297-6.296,6.297c-3.478,0-6.297-2.82-6.297-6.297
				c0-3.477,2.819-6.297,6.297-6.297C164.924,324.582,167.743,327.401,167.743,330.878z"/>
			<path style="fill:#E29866;" d="M146.954,397.62c0,3.478-2.818,6.298-6.296,6.298s-6.297-2.82-6.297-6.298
				c0-3.477,2.819-6.296,6.297-6.296S146.954,394.144,146.954,397.62z"/>
			<path style="fill:#E29866;" d="M293.568,514.692c0,3.479-2.819,6.298-6.296,6.298c-3.478,0-6.297-2.819-6.297-6.298
				c0-3.477,2.819-6.296,6.297-6.296C290.749,508.397,293.568,511.216,293.568,514.692z"/>
			<path style="fill:#E29866;" d="M349.685,558.298c0,3.477-2.818,6.297-6.296,6.297s-6.298-2.82-6.298-6.297
				c0-3.478,2.82-6.298,6.298-6.298S349.685,554.82,349.685,558.298z"/>
			<path style="fill:#E29866;" d="M185.565,529.851c0,3.477-2.818,6.296-6.296,6.296c-3.478,0-6.298-2.819-6.298-6.296
				c0-3.479,2.82-6.298,6.298-6.298C182.747,523.553,185.565,526.372,185.565,529.851z"/>
			<path style="fill:#E29866;" d="M383.282,505.771c0,4.829-3.913,8.744-8.742,8.744c-4.827,0-8.743-3.915-8.743-8.744
				c0-4.828,3.916-8.743,8.743-8.743C379.369,497.027,383.282,500.942,383.282,505.771z"/>
			<path style="fill:#E29866;" d="M215.56,431.967c0,2.406-1.95,4.358-4.358,4.358c-2.407,0-4.358-1.952-4.358-4.358
				c0-2.408,1.951-4.359,4.358-4.359C213.61,427.607,215.56,429.559,215.56,431.967z"/>
			<path style="fill:#E29866;" d="M228.689,393.672c0,2.406-1.95,4.358-4.358,4.358c-2.407,0-4.358-1.952-4.358-4.358
				c0-2.409,1.951-4.36,4.358-4.36C226.739,389.313,228.689,391.264,228.689,393.672z"/>
			<path style="fill:#E29866;" d="M297.62,464.791c0,2.406-1.95,4.358-4.358,4.358c-2.407,0-4.358-1.952-4.358-4.358
				c0-2.408,1.951-4.359,4.358-4.359C295.669,460.432,297.62,462.383,297.62,464.791z"/>
			<path style="fill:#E29866;" d="M127.199,335.071c0,3.477-2.818,6.297-6.296,6.297c-3.477,0-6.296-2.82-6.296-6.297
				c0-3.479,2.819-6.297,6.296-6.297C124.38,328.773,127.199,331.592,127.199,335.071z"/>
			<path style="fill:#E29866;" d="M127.199,472.932c0,3.478-2.818,6.297-6.296,6.297c-3.477,0-6.296-2.819-6.296-6.297
				c0-3.479,2.819-6.297,6.296-6.297C124.38,466.635,127.199,469.453,127.199,472.932z"/>
			<path style="fill:#E29866;" d="M204.882,608.604c0,3.477-2.819,6.296-6.297,6.296c-3.476,0-6.296-2.819-6.296-6.296
				c0-3.479,2.82-6.298,6.296-6.298C202.063,602.307,204.882,605.125,204.882,608.604z"/>
			<path style="fill:#E29866;" d="M309.919,429.167c0,3.477-2.819,6.296-6.297,6.296c-3.477,0-6.296-2.819-6.296-6.296
				c0-3.479,2.82-6.298,6.296-6.298C307.1,422.869,309.919,425.688,309.919,429.167z"/>
			<path style="fill:#E29866;" d="M462.003,523.262c0,3.478-2.818,6.297-6.296,6.297c-3.478,0-6.297-2.819-6.297-6.297
				c0-3.479,2.819-6.297,6.297-6.297C459.185,516.965,462.003,519.783,462.003,523.262z"/>
			<path style="fill:#E29866;" d="M479.244,677.296c0,2.446-1.981,4.427-4.427,4.427c-2.444,0-4.427-1.981-4.427-4.427
				c0-2.444,1.982-4.427,4.427-4.427C477.263,672.869,479.244,674.852,479.244,677.296z"/>
			<path style="fill:#E29866;" d="M322.784,677.296c0,2.446-1.982,4.427-4.427,4.427c-2.445,0-4.427-1.981-4.427-4.427
				c0-2.444,1.982-4.427,4.427-4.427C320.801,672.869,322.784,674.852,322.784,677.296z"/>
			<path style="fill:#E29866;" d="M403.113,657.284c0,3.479-2.819,6.297-6.297,6.297c-3.477,0-6.297-2.818-6.297-6.297
				c0-3.478,2.82-6.297,6.297-6.297C400.294,650.987,403.113,653.807,403.113,657.284z"/>
		</g>
		<g>
			<g>
				<g>
					
						<line style="fill:none;stroke:#DBB297;stroke-width:1.0941;stroke-miterlimit:10;" x1="665.899" y1="331.303" x2="666.16" y2="468.878"/>
					
						<line style="fill:#D9F2F2;stroke:#DBB297;stroke-width:1.0941;stroke-miterlimit:10;" x1="312.057" y1="673.148" x2="468.955" y2="672.672"/>
					<g>
						<polygon style="fill:none;stroke:#DBB297;stroke-width:1.0941;stroke-miterlimit:10;" points="587.934,604.257 
							312.057,673.148 114.455,468.679 192.73,195.315 468.608,126.422 666.21,330.893 						"/>
						<polygon style="fill:none;stroke:#DBB297;stroke-width:1.0941;stroke-miterlimit:10;" points="666.16,468.878 
							468.411,673.204 192.584,604.115 114.504,330.695 312.252,126.366 588.081,195.457 						"/>
						<polygon style="fill:none;stroke:#DBB297;stroke-width:1.0941;stroke-miterlimit:10;" points="170.547,272.788 
							312.627,318.713 262.35,177.93 						"/>
						<polyline style="fill:none;stroke:#DBB297;stroke-width:1.0941;stroke-miterlimit:10;" points="262.193,621.551 
							312.784,319.073 610.208,272.945 578.891,381.525 518.401,621.969 						"/>
						
							<line style="fill:none;stroke:#DBB297;stroke-width:1.0941;stroke-miterlimit:10;" x1="134.208" y1="399.694" x2="372.367" y2="496.147"/>
						<path style="fill:none;stroke:#DBB297;stroke-width:1.0941;stroke-miterlimit:10;" d="M518.401,621.551
							c-0.088,0.092-205.617-302.478-205.617-302.478"/>
						
							<polygon style="fill:none;stroke:#DBB297;stroke-width:1.0941;stroke-linecap:round;stroke-linejoin:round;stroke-miterlimit:10;" points="
							368.878,501.924 390.17,145.883 423.57,429.775 						"/>
						<path style="fill:none;stroke:#DBB297;stroke-width:1.0941;stroke-miterlimit:10;" d="M363.063,459.856"/>
						
							<polygon style="fill:none;stroke:#DBB297;stroke-width:1.0941;stroke-linecap:round;stroke-linejoin:round;stroke-miterlimit:10;" points="
							588.081,195.457 423.57,429.775 665.899,331.303 						"/>
						<polygon style="fill:none;stroke:#DBB297;stroke-width:1.0941;stroke-miterlimit:10;" points="312.252,126.366 
							170.547,526.72 665.899,464.787 						"/>
						<polygon style="fill:none;stroke:#DBB297;stroke-width:1.0941;stroke-miterlimit:10;" points="114.455,468.679 
							312.784,319.073 114.504,330.695 						"/>
						<path style="fill:none;stroke:#DBB297;stroke-width:1.0941;stroke-miterlimit:10;" d="M192.584,604.115
							c0,0,363.669-120.617,361.854-125.392"/>
						<path style="fill:none;stroke:#DBB297;stroke-width:1.0941;stroke-miterlimit:10;" d="M114.504,330.695l78.226-135.38
							l119.522-68.95c0,0,79.894,532.056,78.081,527.281"/>
						
							<line style="fill:none;stroke:#DBB297;stroke-width:1.0941;stroke-miterlimit:10;" x1="587.934" y1="604.257" x2="423.57" y2="429.775"/>
						<path style="fill:none;stroke:#DBB297;stroke-width:1.0941;stroke-miterlimit:10;" d="M170.547,526.72
							c4.473-1.594,118.717-67.023,118.717-67.023l101.069,193.95l78.275-527.225L312.627,318.713l-142.08-45.926"/>
						<polygon style="fill:none;stroke:#DBB297;stroke-width:1.0941;stroke-miterlimit:10;" points="422.915,430.167 
							205.315,428.492 192.73,195.315 336.637,289.115 						"/>
						<polyline style="fill:none;stroke:#DBB297;stroke-width:1.0941;stroke-miterlimit:10;" points="312.784,122.571 
							468.608,126.422 588.081,195.457 449.165,257.384 						"/>
						
							<line style="fill:none;stroke:#DBB297;stroke-width:1.0941;stroke-miterlimit:10;" x1="587.934" y1="604.257" x2="665.899" y2="464.787"/>
						
							<line style="fill:none;stroke:#DBB297;stroke-width:1.0941;stroke-miterlimit:10;" x1="468.411" y1="673.204" x2="588.216" y2="603.742"/>
						
							<line style="fill:none;stroke:#DBB297;stroke-width:1.0941;stroke-miterlimit:10;" x1="192.585" y1="604.604" x2="312.057" y2="673.148"/>
						
							<line style="fill:none;stroke:#DBB297;stroke-width:1.0941;stroke-miterlimit:10;" x1="114.902" y1="468.932" x2="192.584" y2="607.222"/>
					</g>
				</g>
				<g>
					<g>
						<path style="fill:#F6704E;" d="M672.702,464.739c0,3.478-2.818,6.298-6.297,6.298c-3.478,0-6.296-2.82-6.296-6.298
							c0-3.477,2.818-6.297,6.296-6.297C669.884,458.442,672.702,461.263,672.702,464.739z"/>
						<path style="fill:#F6704E;" d="M586.266,381.585c0,3.478-2.818,6.297-6.297,6.297c-3.478,0-6.296-2.82-6.296-6.297
							c0-3.477,2.818-6.297,6.296-6.297C583.447,375.288,586.266,378.108,586.266,381.585z"/>
						<path style="fill:#F6704E;" d="M671.924,331.094c0,3.477-2.818,6.297-6.296,6.297c-3.479,0-6.298-2.82-6.298-6.297
							c0-3.478,2.819-6.297,6.298-6.297C669.105,324.797,671.924,327.617,671.924,331.094z"/>
						<path style="fill:#F6704E;" d="M593.94,195.138c0,3.477-2.818,6.296-6.295,6.296c-3.478,0-6.298-2.819-6.298-6.296
							c0-3.479,2.819-6.297,6.298-6.297C591.121,188.84,593.94,191.659,593.94,195.138z"/>
						<path style="fill:#F6704E;" d="M614.389,272.6c0,2.406-1.95,4.358-4.358,4.358c-2.407,0-4.358-1.952-4.358-4.358
							c0-2.408,1.951-4.359,4.358-4.359C612.438,268.241,614.389,270.192,614.389,272.6z"/>
						<path style="fill:#F6704E;" d="M554.86,211.256c0,3.478-2.818,6.298-6.297,6.298c-3.478,0-6.298-2.82-6.298-6.298
							c0-3.478,2.82-6.296,6.298-6.296C552.042,204.96,554.86,207.778,554.86,211.256z"/>
						<g>
							<path style="fill:#F6704E;" d="M524.994,621.2c0,3.477-2.818,6.298-6.297,6.298c-3.478,0-6.296-2.82-6.296-6.298
								s2.818-6.297,6.296-6.297C522.176,614.903,524.994,617.723,524.994,621.2z"/>
							<path style="fill:#F6704E;" d="M593.85,604.276c0,3.477-2.819,6.298-6.298,6.298c-3.478,0-6.296-2.821-6.296-6.298
								c0-3.477,2.818-6.298,6.296-6.298C591.03,597.979,593.85,600.8,593.85,604.276z"/>
							<path style="fill:#F6704E;" d="M508.898,400.025c0,3.477-2.818,6.296-6.297,6.296c-3.478,0-6.297-2.819-6.297-6.296
								c0-3.478,2.819-6.298,6.297-6.298C506.08,393.727,508.898,396.547,508.898,400.025z"/>
							<path style="fill:#F6704E;" d="M411.974,303.236c0,2.406-1.949,4.358-4.358,4.358c-2.407,0-4.358-1.952-4.358-4.358
								c0-2.408,1.951-4.359,4.358-4.359C410.024,298.876,411.974,300.828,411.974,303.236z"/>
							<path style="fill:#F6704E;" d="M448.175,298.859c0,2.406-1.95,4.358-4.358,4.358c-2.407,0-4.358-1.952-4.358-4.358
								c0-2.409,1.951-4.359,4.358-4.359C446.225,294.5,448.175,296.451,448.175,298.859z"/>
							<path style="fill:#F6704E;" d="M452.371,257.859c0,1.963-1.59,3.555-3.555,3.555c-1.963,0-3.555-1.592-3.555-3.555
								c0-1.964,1.592-3.556,3.555-3.556C450.781,254.304,452.371,255.895,452.371,257.859z"/>
							<path style="fill:#F6704E;" d="M566.371,576.859c0,1.963-1.59,3.555-3.555,3.555c-1.963,0-3.555-1.592-3.555-3.555
								c0-1.965,1.592-3.556,3.555-3.556C564.781,573.304,566.371,574.894,566.371,576.859z"/>
							<path style="fill:#F6704E;" d="M265.371,620.859c0,1.963-1.59,3.555-3.555,3.555c-1.963,0-3.555-1.592-3.555-3.555
								c0-1.965,1.592-3.556,3.555-3.556C263.781,617.304,265.371,618.894,265.371,620.859z"/>
							<path style="fill:#F6704E;" d="M176.119,272.859c0,2.928-2.372,5.303-5.303,5.303c-2.928,0-5.303-2.375-5.303-5.303
								c0-2.93,2.374-5.304,5.303-5.304C173.748,267.556,176.119,269.929,176.119,272.859z"/>
							<path style="fill:#F6704E;" d="M512.19,313.01c0,3.478-2.818,6.298-6.298,6.298c-3.477,0-6.298-2.82-6.298-6.298
								c0-3.478,2.821-6.296,6.298-6.296C509.371,306.714,512.19,309.532,512.19,313.01z"/>
							<path style="fill:#F6704E;" d="M560.863,478.779c0,3.477-2.818,6.298-6.298,6.298c-3.477,0-6.297-2.821-6.297-6.298
								c0-3.479,2.82-6.298,6.297-6.298C558.045,472.481,560.863,475.3,560.863,478.779z"/>
							<path style="fill:#F6704E;" d="M429.213,430.167c0,3.478-2.818,6.298-6.298,6.298c-3.477,0-6.298-2.82-6.298-6.298
								c0-3.477,2.821-6.298,6.298-6.298C426.395,423.869,429.213,426.69,429.213,430.167z"/>
							<g>
								<path style="fill:#F6704E;" d="M384.96,354.881c0,3.477-2.819,6.296-6.295,6.296c-3.478,0-6.298-2.819-6.298-6.296
									c0-3.479,2.82-6.298,6.298-6.298C382.142,348.583,384.96,351.402,384.96,354.881z"/>
								<path style="fill:#F6704E;" d="M379.15,408.272c0,2.406-1.95,4.358-4.358,4.358c-2.407,0-4.358-1.952-4.358-4.358
									c0-2.408,1.951-4.359,4.358-4.359C377.2,403.913,379.15,405.864,379.15,408.272z"/>
								<path style="fill:#F6704E;" d="M362.738,427.967c0,2.406-1.95,4.358-4.358,4.358c-2.407,0-4.358-1.952-4.358-4.358
									c0-2.408,1.951-4.359,4.358-4.359C360.788,423.607,362.738,425.559,362.738,427.967z"/>
								<path style="fill:#F6704E;" d="M352.891,373.26c0,2.406-1.95,4.358-4.358,4.358c-2.408,0-4.358-1.952-4.358-4.358
									c0-2.408,1.951-4.359,4.358-4.359C350.941,368.901,352.891,370.852,352.891,373.26z"/>
								<g>
									<path style="fill:#F6704E;" d="M266.779,180.265c0,3.478-2.819,6.297-6.296,6.297c-3.478,0-6.297-2.819-6.297-6.297
										c0-3.477,2.819-6.297,6.297-6.297C263.96,173.968,266.779,176.788,266.779,180.265z"/>
									<path style="fill:#F6704E;" d="M396.981,145.252c0,3.478-2.819,6.297-6.297,6.297c-3.478,0-6.297-2.819-6.297-6.297
										c0-3.477,2.819-6.297,6.297-6.297C394.162,138.956,396.981,141.775,396.981,145.252z"/>
									<path style="fill:#F6704E;" d="M343.383,289.233c0,3.477-2.818,6.295-6.295,6.295c-3.478,0-6.298-2.819-6.298-6.295
										c0-3.479,2.82-6.298,6.298-6.298C340.565,282.935,343.383,285.754,343.383,289.233z"/>
									<path style="fill:#F6704E;" d="M403.56,211.55c0,3.477-2.818,6.295-6.295,6.295c-3.479,0-6.298-2.818-6.298-6.295
										c0-3.479,2.819-6.297,6.298-6.297C400.742,205.252,403.56,208.071,403.56,211.55z"/>
									<path style="fill:#F6704E;" d="M254.419,298.859c0,2.406-1.95,4.358-4.358,4.358c-2.407,0-4.358-1.952-4.358-4.358
										c0-2.409,1.951-4.359,4.358-4.359C252.469,294.5,254.419,296.451,254.419,298.859z"/>
									<path style="fill:#F6704E;" d="M275.207,246.341c0,2.406-1.95,4.358-4.358,4.358c-2.407,0-4.358-1.952-4.358-4.358
										c0-2.408,1.951-4.359,4.358-4.359C273.258,241.981,275.207,243.933,275.207,246.341z"/>
									<path style="fill:#F6704E;" d="M474.989,125.914c0,3.478-2.818,6.298-6.298,6.298c-3.477,0-6.298-2.82-6.298-6.298
										c0-3.478,2.821-6.296,6.298-6.296C472.171,119.617,474.989,122.436,474.989,125.914z"/>
									<path style="fill:#F6704E;" d="M318.528,125.914c0,3.478-2.819,6.298-6.298,6.298c-3.477,0-6.297-2.82-6.297-6.298
										c0-3.478,2.821-6.296,6.297-6.296C315.71,119.617,318.528,122.436,318.528,125.914z"/>
									<path style="fill:#F6704E;" d="M199.268,194.844c0,3.478-2.819,6.297-6.298,6.297c-3.477,0-6.297-2.82-6.297-6.297
										c0-3.478,2.821-6.297,6.297-6.297C196.449,188.547,199.268,191.366,199.268,194.844z"/>
									<path style="fill:#F6704E;" d="M318.821,319.021c0,3.477-2.819,6.296-6.298,6.296c-3.477,0-6.296-2.819-6.296-6.296
										c0-3.479,2.819-6.298,6.296-6.298C316.002,312.723,318.821,315.542,318.821,319.021z"/>
									<g>
										<path style="fill:#F6704E;" d="M161.743,326.878c0,3.478-2.819,6.297-6.296,6.297c-3.478,0-6.297-2.82-6.297-6.297
											c0-3.477,2.819-6.297,6.297-6.297C158.924,320.582,161.743,323.401,161.743,326.878z"/>
										<path style="fill:#F6704E;" d="M140.954,393.62c0,3.478-2.818,6.298-6.296,6.298s-6.297-2.82-6.297-6.298
											c0-3.477,2.819-6.296,6.297-6.296S140.954,390.144,140.954,393.62z"/>
										<path style="fill:#F6704E;" d="M287.568,510.692c0,3.478-2.819,6.298-6.296,6.298c-3.478,0-6.297-2.819-6.297-6.298
											c0-3.477,2.819-6.296,6.297-6.296C284.749,504.397,287.568,507.216,287.568,510.692z"/>
										<path style="fill:#F6704E;" d="M343.685,554.298c0,3.477-2.818,6.297-6.296,6.297s-6.298-2.82-6.298-6.297
											c0-3.478,2.82-6.298,6.298-6.298S343.685,550.82,343.685,554.298z"/>
										<path style="fill:#F6704E;" d="M179.565,525.851c0,3.477-2.818,6.296-6.296,6.296c-3.478,0-6.298-2.819-6.298-6.296
											c0-3.479,2.82-6.298,6.298-6.298C176.747,519.553,179.565,522.372,179.565,525.851z"/>
										<path style="fill:#F6704E;" d="M377.282,501.771c0,4.829-3.913,8.744-8.742,8.744c-4.827,0-8.743-3.915-8.743-8.744
											c0-4.828,3.916-8.743,8.743-8.743C373.369,493.027,377.282,496.942,377.282,501.771z"/>
										<path style="fill:#F6704E;" d="M209.56,427.967c0,2.406-1.95,4.358-4.358,4.358c-2.407,0-4.358-1.952-4.358-4.358
											c0-2.408,1.951-4.359,4.358-4.359C207.61,423.607,209.56,425.559,209.56,427.967z"/>
										<path style="fill:#F6704E;" d="M222.689,389.672c0,2.406-1.95,4.358-4.358,4.358c-2.407,0-4.358-1.952-4.358-4.358
											c0-2.409,1.951-4.36,4.358-4.36C220.739,385.313,222.689,387.264,222.689,389.672z"/>
										<path style="fill:#F6704E;" d="M291.62,460.791c0,2.406-1.95,4.358-4.358,4.358c-2.407,0-4.358-1.952-4.358-4.358
											c0-2.408,1.951-4.359,4.358-4.359C289.669,456.432,291.62,458.383,291.62,460.791z"/>
										<path style="fill:#F6704E;" d="M121.199,331.071c0,3.477-2.818,6.297-6.296,6.297c-3.477,0-6.296-2.82-6.296-6.297
											c0-3.479,2.819-6.297,6.296-6.297C118.38,324.773,121.199,327.592,121.199,331.071z"/>
										<path style="fill:#F6704E;" d="M121.199,468.932c0,3.478-2.818,6.297-6.296,6.297c-3.477,0-6.296-2.819-6.296-6.297
											c0-3.479,2.819-6.297,6.296-6.297C118.38,462.635,121.199,465.453,121.199,468.932z"/>
										<path style="fill:#F6704E;" d="M198.882,604.604c0,3.477-2.819,6.296-6.297,6.296c-3.476,0-6.296-2.819-6.296-6.296
											c0-3.479,2.82-6.298,6.296-6.298C196.063,598.307,198.882,601.125,198.882,604.604z"/>
										<path style="fill:#F6704E;" d="M303.919,425.167c0,3.477-2.819,6.296-6.297,6.296c-3.477,0-6.296-2.819-6.296-6.296
											c0-3.479,2.82-6.298,6.296-6.298C301.1,418.869,303.919,421.688,303.919,425.167z"/>
									</g>
								</g>
							</g>
							<path style="fill:#F6704E;" d="M456.003,519.262c0,3.478-2.818,6.297-6.296,6.297c-3.478,0-6.297-2.819-6.297-6.297
								c0-3.479,2.819-6.297,6.297-6.297C453.185,512.965,456.003,515.783,456.003,519.262z"/>
							<path style="fill:#F6704E;" d="M473.244,673.296c0,2.446-1.981,4.427-4.427,4.427c-2.444,0-4.427-1.981-4.427-4.427
								c0-2.444,1.982-4.427,4.427-4.427C471.263,668.869,473.244,670.852,473.244,673.296z"/>
							<path style="fill:#F6704E;" d="M316.784,673.296c0,2.446-1.982,4.427-4.427,4.427c-2.445,0-4.427-1.981-4.427-4.427
								c0-2.444,1.982-4.427,4.427-4.427C314.801,668.869,316.784,670.852,316.784,673.296z"/>
							<path style="fill:#F6704E;" d="M397.113,653.284c0,3.479-2.819,6.297-6.297,6.297c-3.477,0-6.297-2.818-6.297-6.297
								c0-3.478,2.82-6.297,6.297-6.297C394.294,646.987,397.113,649.807,397.113,653.284z"/>
						</g>
					</g>
				</g>
			</g>
		</g>
	</g>
	<g>
		<path style="fill:#F6704E;" d="M335.718,407.745c-3.26-33.347,21.125-63.024,54.47-66.282
			c33.344-3.262,63.022,21.122,66.282,54.469c3.263,33.347-21.126,63.022-54.47,66.285
			C368.654,465.476,338.98,441.091,335.718,407.745z"/>
		<path style="fill:#FFFFFF;" d="M430.714,378.866c-2.576,1.506-5.436,2.6-8.473,3.19c-2.43-2.553-5.896-4.148-9.734-4.148
			c-7.364,0-13.336,5.879-13.336,13.13c0,1.03,0.119,2.029,0.343,2.99c-11.085-0.547-20.913-5.774-27.492-13.717
			c-1.146,1.938-1.807,4.194-1.807,6.601c0,4.553,2.359,8.573,5.935,10.927c-2.184-0.07-4.243-0.659-6.041-1.641v0.164
			c0,6.36,4.598,11.668,10.701,12.877c-1.121,0.3-2.298,0.459-3.518,0.459c-0.858,0-1.692-0.082-2.51-0.235
			c1.701,5.214,6.625,9.013,12.461,9.119c-4.565,3.521-10.315,5.621-16.567,5.621c-1.079,0-2.136-0.064-3.184-0.185
			c5.905,3.726,12.92,5.899,20.448,5.899c24.536,0,37.95-20.004,37.95-37.356c0-0.568-0.008-1.138-0.035-1.699
			c2.604-1.851,4.869-4.163,6.654-6.798c-2.391,1.046-4.961,1.749-7.66,2.067C427.604,384.507,429.716,381.935,430.714,378.866"/>
	</g>
	<g>
		<path style="fill:#F6704E;" d="M535.151,199.393c-2.399-24.532,15.541-46.364,40.071-48.761
			c24.529-2.4,46.361,15.539,48.761,40.07c2.399,24.531-15.541,46.363-40.071,48.763
			C559.381,241.862,537.551,223.924,535.151,199.393z"/>
		<path style="fill:#FFFFFF;" d="M605.058,193.533c0,12.639-10.325,22.884-23.063,22.884c-4.044,0-7.843-1.034-11.149-2.847
			l-12.769,4.058l4.162-12.279c-2.1-3.45-3.309-7.493-3.309-11.815c0-12.64,10.325-22.886,23.064-22.886
			C594.732,170.647,605.058,180.893,605.058,193.533 M581.995,174.291c-10.693,0-19.391,8.632-19.391,19.24
			c0,4.209,1.372,8.108,3.692,11.28l-2.423,7.144l7.452-2.367c3.062,2.011,6.729,3.182,10.667,3.182
			c10.691,0,19.391-8.63,19.391-19.24C601.385,182.923,592.685,174.291,581.995,174.291 M593.64,198.802
			c-0.143-0.233-0.518-0.374-1.083-0.655c-0.566-0.28-3.348-1.638-3.863-1.824c-0.52-0.186-0.896-0.28-1.274,0.28
			c-0.375,0.562-1.458,1.825-1.789,2.199c-0.331,0.374-0.659,0.421-1.225,0.141c-0.563-0.28-2.387-0.872-4.547-2.784
			c-1.68-1.486-2.815-3.321-3.144-3.884c-0.33-0.56-0.034-0.865,0.247-1.143c0.256-0.252,0.565-0.656,0.849-0.982
			c0.283-0.329,0.378-0.562,0.567-0.937c0.188-0.374,0.093-0.702-0.047-0.983c-0.142-0.28-1.274-3.041-1.744-4.164
			c-0.472-1.123-0.941-0.935-1.271-0.935c-0.331,0-0.706-0.047-1.084-0.047c-0.377,0-0.988,0.141-1.508,0.702
			c-0.519,0.563-1.978,1.919-1.978,4.677c0,2.762,2.024,5.428,2.309,5.803c0.281,0.373,3.91,6.222,9.656,8.468
			c5.748,2.246,5.748,1.497,6.784,1.402c1.035-0.093,3.343-1.356,3.817-2.667C593.781,200.16,593.781,199.035,593.64,198.802"/>
	</g>
	<g>
		<path style="fill:#F6704E;" d="M423.891,677.528c-2.398-24.531,15.541-46.363,40.071-48.76c24.529-2.4,46.362,15.538,48.761,40.07
			c2.4,24.531-15.541,46.362-40.071,48.763C448.121,719.998,426.291,702.06,423.891,677.528z"/>
		<path style="fill:#FFFFFF;" d="M496.067,663.185c0,0-0.521-3.832-2.116-5.517c-2.027-2.21-4.3-2.224-5.336-2.352
			c-7.462-0.56-18.645-0.56-18.645-0.56h-0.025c0,0-11.188,0-18.643,0.563c-1.042,0.126-3.31,0.14-5.341,2.35
			c-1.595,1.687-2.116,5.518-2.116,5.518s-0.534,4.495-0.534,8.992v4.214c0,4.5,0.534,8.997,0.534,8.997s0.521,3.827,2.116,5.515
			c2.031,2.214,4.694,2.142,5.878,2.372c4.263,0.427,18.117,0.559,18.117,0.559s11.198-0.02,18.66-0.579
			c1.036-0.129,3.309-0.139,5.336-2.354c1.595-1.686,2.116-5.515,2.116-5.515s0.534-4.495,0.534-8.995v-4.214
			C496.602,667.682,496.067,663.185,496.067,663.185 M464.456,681.506l-0.004-15.613l14.397,7.836L464.456,681.506z"/>
	</g>
	<g>
		<path style="fill:#F6704E;" d="M277.174,128.415c-1.872-19.15,12.131-36.193,31.28-38.063c19.148-1.873,36.191,12.13,38.064,31.28
			c1.874,19.149-12.132,36.191-31.281,38.065C296.088,161.568,279.048,147.565,277.174,128.415z"/>
		<path style="fill:#FFFFFF;" d="M305.772,144.172h13.948c6.677,0,12.103-5.44,12.14-12.08l0.073-9.776l-0.11-0.534l-0.325-0.664
			l-0.538-0.421c-0.706-0.551-4.278,0.034-5.238-0.835c-0.684-0.625-0.789-1.753-0.993-3.273c-0.383-2.96-0.628-3.112-1.089-4.11
			c-1.683-3.559-6.246-6.232-9.378-6.603h-8.489c-6.678,0-12.136,5.451-12.136,12.101v14.115
			C293.636,138.732,299.094,144.172,305.772,144.172 M305.927,115.765h6.73c1.284,0,2.325,1.039,2.325,2.309
			c0,1.263-1.042,2.313-2.325,2.313h-6.73c-1.284,0-2.325-1.05-2.325-2.313C303.602,116.805,304.643,115.765,305.927,115.765
			 M305.927,129.612h13.674c1.279,0,2.313,1.035,2.313,2.304c0,1.25-1.034,2.304-2.313,2.304h-13.674
			c-1.284,0-2.325-1.052-2.325-2.304C303.602,130.646,304.643,129.612,305.927,129.612"/>
	</g>
	<path style="fill:#F6704E;" d="M151.859,608.881c-2.553-26.121,16.547-49.367,42.665-51.918
		c26.118-2.555,49.364,16.544,51.917,42.664c2.555,26.119-16.548,49.363-42.666,51.919
		C177.657,654.099,154.415,634.998,151.859,608.881z"/>
	<g>
		<path style="fill:#F6704E;" d="M621.929,469.644c-2.398-24.531,15.541-46.364,40.071-48.761
			c24.529-2.399,46.361,15.539,48.761,40.07c2.399,24.532-15.541,46.363-40.071,48.763
			C646.159,512.112,624.328,494.175,621.929,469.644z"/>
		<path style="fill:#FFFFFF;" d="M654.057,497.287c0.058,0.415,0.609,0.514,0.858,0.203c0.356-0.448,4.948-5.938,6.51-11.419
			c0.441-1.556,2.533-9.591,2.533-9.591c1.257,2.314,4.918,4.346,8.811,4.346c11.59,0,19.453-10.224,19.453-23.913
			c0-10.349-9.062-19.987-22.83-19.987c-17.127,0.002-25.768,11.887-25.768,21.796c0,6,2.35,11.34,7.382,13.332
			c0.83,0.324,1.569,0.012,1.806-0.875c0.169-0.613,0.563-2.153,0.739-2.803c0.237-0.876,0.148-1.18-0.518-1.943
			c-1.455-1.656-2.384-3.805-2.384-6.842c0-8.819,6.822-16.714,17.755-16.714c9.682,0,15.003,5.726,15.003,13.37
			c0,10.063-4.603,18.553-11.427,18.553c-3.776,0-6.602-3.017-5.698-6.719c1.088-4.423,3.188-9.191,3.188-12.382
			c0-2.855-1.586-5.236-4.865-5.236c-3.856,0-6.955,3.858-6.955,9.028c0,3.294,1.152,5.524,1.152,5.524s-3.948,16.176-4.639,19.012
			C652.789,489.674,653.958,496.591,654.057,497.287"/>
	</g>
	<g>
		<path style="fill:#F6704E;" d="M79.239,337.254c-2.399-24.532,15.541-46.365,40.071-48.761c24.53-2.4,46.363,15.539,48.761,40.07
			c2.4,24.532-15.541,46.363-40.072,48.763C103.469,379.722,81.639,361.785,79.239,337.254z"/>
		<path style="fill:#FFFFFF;" d="M113.11,361.641h11.893v-29.732h8.826l1.085-11.893h-9.451v-4.755c0-2.318,1.544-2.856,2.628-2.856
			h6.672v-10.19l-9.187-0.038c-10.199,0-12.516,7.599-12.516,12.463v5.376h-5.897v11.893h5.946V361.641z"/>
	</g>
	<path style="fill:#FFFFFF;" d="M189.689,626.646c0.539,1.423,1.506,2.763,2.914,4.026c1.395,1.255,3.088,2.231,5.068,2.917
		c1.983,0.677,3.505,1.022,6.087,1.022c2.271,0,4.385-0.245,6.34-0.72c1.958-0.479,4.145-1.315,6.552-2.501v-9.314
		c-2.827,1.945-5.673,2.916-8.527,2.916c-1.607,0-3.032-0.394-4.285-1.18c-0.94-0.58-1.808-1.584-2.15-2.549
		c-0.346-0.969-0.305-2.946-0.305-6.371v-15.146h13.049V589.2h-13.049v-13.661h-8.025c-0.36,3.043-1.021,5.555-1.98,7.525
		c-0.956,1.974-2.225,3.66-3.808,5.073c-1.576,1.407-4.147,2.486-6.365,3.236v8.368h7.671v20.715
		C188.879,623.161,189.145,625.222,189.689,626.646"/>
</g>
</svg>
