<?xml version="1.0" encoding="utf-8"?>
<!-- Generator: Adobe Illustrator 27.5.0, SVG Export Plug-In . SVG Version: 6.00 Build 0)  -->
<svg version="1.1" xmlns="http://www.w3.org/2000/svg" xmlns:xlink="http://www.w3.org/1999/xlink" x="0px" y="0px"
	 viewBox="0 0 500 500" style="enable-background:new 0 0 500 500;" xml:space="preserve">
<g id="Background_Simple">
	<g>
		<path style="fill:#92E3A9;" d="M57.499,246.248c8.978-31.613,39.978-73.294,83.255-73.294c41.743,0,51.656,60.997,88.773,61.044
			c48.949,0.063,40.104-69.796,74.949-102.906c31-29.457,86.796-16.924,120.44,9.126c32.467,25.14,40.788,70.021,28.583,113.426
			c-13.022,46.309-47.114,88.235-90.583,113.629c-41.44,24.208-90.44,29.905-149.843,29.208
			C155.264,395.803,101.3,367.5,68.499,321.478C53.157,299.953,48.058,279.491,57.499,246.248z"/>
		<path style="opacity:0.7;fill:#FFFFFF;" d="M57.499,246.248c8.978-31.613,39.978-73.294,83.255-73.294
			c41.743,0,51.656,60.997,88.773,61.044c48.949,0.063,40.104-69.796,74.949-102.906c31-29.457,86.796-16.924,120.44,9.126
			c32.467,25.14,40.788,70.021,28.583,113.426c-13.022,46.309-47.114,88.235-90.583,113.629
			c-41.44,24.208-90.44,29.905-149.843,29.208C155.264,395.803,101.3,367.5,68.499,321.478
			C53.157,299.953,48.058,279.491,57.499,246.248z"/>
	</g>
</g>
<g id="Floor">
	
		<line style="fill:none;stroke:#263238;stroke-linecap:round;stroke-linejoin:round;stroke-miterlimit:10;" x1="42.22" y1="409.474" x2="455.78" y2="409.474"/>
</g>
<g id="Door">
	<g>
		<g>
			<g>
				
					<path style="fill:none;stroke:#263238;stroke-width:0.75;stroke-linecap:round;stroke-linejoin:round;stroke-miterlimit:10;" d="
					M308.793,138.167"/>
				
					<path style="fill:none;stroke:#263238;stroke-width:0.75;stroke-linecap:round;stroke-linejoin:round;stroke-miterlimit:10;" d="
					M308.793,128.02"/>
			</g>
		</g>
	</g>
	<g>
		<g>
			<g>
				
					<rect x="343.124" y="134.02" style="fill:none;stroke:#263238;stroke-width:0.75;stroke-linecap:round;stroke-linejoin:round;stroke-miterlimit:10;" width="115.727" height="275.454"/>
				
					<rect x="350.685" y="141.33" style="fill:none;stroke:#263238;stroke-width:0.75;stroke-linecap:round;stroke-linejoin:round;stroke-miterlimit:10;" width="108.165" height="261.251"/>
			</g>
			
				<rect x="352.785" y="252.812" style="fill:none;stroke:#263238;stroke-width:0.75;stroke-linecap:round;stroke-linejoin:round;stroke-miterlimit:10;" width="7.028" height="35.046"/>
		</g>
		<g>
			
				<line style="fill:none;stroke:#263238;stroke-width:0.75;stroke-linecap:round;stroke-linejoin:round;stroke-miterlimit:10;" x1="414.528" y1="173.656" x2="417.622" y2="169.394"/>
			
				<line style="fill:none;stroke:#263238;stroke-width:0.75;stroke-linecap:round;stroke-linejoin:round;stroke-miterlimit:10;" x1="390.469" y1="206.796" x2="411.801" y2="177.413"/>
			
				<line style="fill:none;stroke:#263238;stroke-width:0.75;stroke-linecap:round;stroke-linejoin:round;stroke-miterlimit:10;" x1="416.075" y1="201.627" x2="441.033" y2="167.249"/>
			
				<line style="fill:none;stroke:#263238;stroke-width:0.75;stroke-linecap:round;stroke-linejoin:round;stroke-miterlimit:10;" x1="410.001" y1="209.993" x2="413.417" y2="205.288"/>
			
				<line style="fill:none;stroke:#263238;stroke-width:0.75;stroke-linecap:round;stroke-linejoin:round;stroke-miterlimit:10;" x1="383.606" y1="246.35" x2="407.497" y2="213.443"/>
		</g>
	</g>
</g>
<g id="Plants">
	<g>
		<g>
			<g>
				<path style="fill:#92E3A9;" d="M203.172,400.759c0,0,1.602-40.815,24.974-54.63c0,0-16.345,25.556-19.725,56.791
					L203.172,400.759z"/>
				<path style="fill:#92E3A9;" d="M203.172,400.759c0,0,1.602-40.815,24.974-54.63c0,0-16.345,25.556-19.725,56.791
					L203.172,400.759z"/>
				<path style="opacity:0.2;" d="M203.172,400.759c0,0,1.602-40.815,24.974-54.63c0,0-16.345,25.556-19.725,56.791L203.172,400.759
					z"/>
			</g>
			<g>
				<path style="fill:#92E3A9;" d="M202.19,407.152c0,0-5.75-36.5,8.75-66.75c0,0-7.333,34.5-4.417,65.75L202.19,407.152z"/>
				<path style="opacity:0.5;" d="M202.19,407.152c0,0-5.75-36.5,8.75-66.75c0,0-7.333,34.5-4.417,65.75L202.19,407.152z"/>
			</g>
			<g>
				<path style="fill:#92E3A9;" d="M200.554,403.517c0,0-9.333-46-47.667-36c0,0,42.333-25.667,52.667,33.667L200.554,403.517z"/>
				<path style="opacity:0.2;" d="M200.554,403.517c0,0-9.333-46-47.667-36c0,0,42.333-25.667,52.667,33.667L200.554,403.517z"/>
			</g>
			<path style="fill:#92E3A9;" d="M203.078,404.058c0,0,14.309-44.703,51.319-30.57c0,0-39.272-30.143-56.033,27.704
				L203.078,404.058z"/>
			<path style="fill:#92E3A9;" d="M204.172,401.933c0,0,2.799-40.75-18.951-57c0,0,13.5,27.167,13.5,58.583L204.172,401.933z"/>
			
				<path style="fill:#999999;stroke:#263238;stroke-width:0.75;stroke-linecap:round;stroke-linejoin:round;stroke-miterlimit:10;" d="
				M230.881,396.644l0.694-6.798H176.77l0.694,6.798c0.744,7.287,6.881,12.83,14.206,12.83h25.005
				C224,409.474,230.137,403.931,230.881,396.644z"/>
		</g>
		<g>
			<g>
				<path style="fill:#92E3A9;" d="M165.609,352.5c0,0-1.833-18.833,4.414-25.667c5.644-6.173,4.586,9,4.586,9
					s9.84-21.167,17.607-22c7.278-0.781-1.941,11.887-1.941,11.887s8.075-5.374,14.5-11.93c6.16-6.285,10.667-12.291,14.5-9.791
					c3.885,2.533-2.833,11.692-2.833,11.692c-0.22,0.218,8.303-5.227,14.656-15.05c7.992-12.359,15.678-10.142,11.844-0.142
					c0,0,5-15.167,10.5-11.833c5.5,3.333,2.506,15.333-2.414,21.667c0,0,9.248-3.333,9.247,2c-0.001,7.261-26.5,11-26.5,11
					s8.167,2.387,6,7.833c-3.01,7.567-17.232-1.333-25.366-0.167c0,0,9.533,5.333,4.366,9s-13.333-4.167-22.833-1.833
					c-9.5,2.333,8.167,2.333,4.833,6.667c-3.333,4.333-20.167-1.5-28.333,8.833C164.276,364,165.609,352.5,165.609,352.5z"/>
				<path style="opacity:0.1;" d="M165.609,352.5c0,0-1.833-18.833,4.414-25.667c5.644-6.173,4.586,9,4.586,9s9.84-21.167,17.607-22
					c7.278-0.781-1.941,11.887-1.941,11.887s8.075-5.374,14.5-11.93c6.16-6.285,10.667-12.291,14.5-9.791
					c3.885,2.533-2.833,11.692-2.833,11.692c-0.22,0.218,8.303-5.227,14.656-15.05c7.992-12.359,15.678-10.142,11.844-0.142
					c0,0,5-15.167,10.5-11.833c5.5,3.333,2.506,15.333-2.414,21.667c0,0,9.248-3.333,9.247,2c-0.001,7.261-26.5,11-26.5,11
					s8.167,2.387,6,7.833c-3.01,7.567-17.232-1.333-25.366-0.167c0,0,9.533,5.333,4.366,9s-13.333-4.167-22.833-1.833
					c-9.5,2.333,8.167,2.333,4.833,6.667c-3.333,4.333-20.167-1.5-28.333,8.833C164.276,364,165.609,352.5,165.609,352.5z"/>
				
					<path style="fill:none;stroke:#263238;stroke-width:0.75;stroke-linecap:round;stroke-linejoin:round;stroke-miterlimit:10;" d="
					M167.942,357c0,0,2.333-24.333,41-31.667c38.667-7.333,42.086-23.148,42.086-23.148"/>
			</g>
			<g>
				<path style="fill:#92E3A9;" d="M146.609,352.167c0,0,9.447-26.57,0.167-30c-7.667-2.833-5.333,10.167-5.333,10.167
					S126.276,310.167,113.776,317c-8.243,4.506,6.833,8.667,6.833,8.667s-32.36-5.082-35.167,3.822
					c-2,6.345,10.333,4.742,10.333,4.742S72.109,341.667,72.942,349c0.833,7.333,11,1.667,11,1.667S70.776,362,60.442,357
					c-10.333-5-2,7.167,4.333,8.167c0,0-11.833,0.5-10,5.667c1.833,5.167,16.667,4,20.5,2.667c0,0-2.5,9.667,5.333,5.333
					C88.442,374.5,93.443,358.5,93.443,358.5s-3.001,7.667,2.499,7.167S106.001,342,106.001,342s-1.872,9,1.868,9.5
					c3.74,0.5,10.074-14.5,18.574-14.167c0,0-5.984,6.697,0.833,7.167C136.942,345.167,146.609,352.167,146.609,352.167z"/>
				
					<path style="fill:none;stroke:#263238;stroke-width:0.75;stroke-linecap:round;stroke-linejoin:round;stroke-miterlimit:10;" d="
					M145.043,357c0,0,1.566-29.481-26.1-27.407c-27.667,2.074-25,38.074-52,40.407"/>
			</g>
			<g>
				<path style="fill:#92E3A9;" d="M157.858,359.789c0,0-14.974-15.595-13.028-31.317c1.946-15.722,9.446,3.278,9.446,3.278
					s-4-23,1-26.75s5,10.692,5,10.692s4.75-24.619,11.5-24.03c6.75,0.588,1.25,9.338,1.25,9.338s20.307-10.613,23.404-2.682
					c3.096,7.932-14.98,9.932-14.98,9.932s11.077,0.75,9.827,5.75s-13.579,2.5-17.04,5.5c0,0,5.18-1,4.985,3.25
					c-0.195,4.25-10.112,6.644-14.279,15.447c0,0,6.833-6.697,10.833-2.197S161.189,349.078,157.858,359.789z"/>
				
					<path style="fill:none;stroke:#263238;stroke-width:0.75;stroke-linecap:round;stroke-linejoin:round;stroke-miterlimit:10;" d="
					M159.255,354.759c0,0-5.134-43.888,22.193-52.573"/>
			</g>
			<path style="fill:#FFFFFF;stroke:#263238;stroke-linecap:round;stroke-linejoin:round;stroke-miterlimit:10;" d="
				M170.498,409.474h-22.485c-5.672,0-10.425-4.292-11.001-9.935L131.853,349h54.805l-5.159,50.539
				C180.923,405.182,176.17,409.474,170.498,409.474z"/>
		</g>
		<path style="opacity:0.1;" d="M146.609,352.167c0,0,9.447-26.57,0.167-30c-7.667-2.833-5.333,10.167-5.333,10.167
			S126.276,310.167,113.776,317c-8.243,4.506,6.833,8.667,6.833,8.667s-32.36-5.082-35.167,3.822
			c-2,6.345,10.333,4.742,10.333,4.742S72.109,341.667,72.942,349c0.833,7.333,11,1.667,11,1.667S70.776,362,60.442,357
			c-10.333-5-2,7.167,4.333,8.167c0,0-11.833,0.5-10,5.667c1.833,5.167,16.667,4,20.5,2.667c0,0-2.5,9.667,5.333,5.333
			C88.442,374.5,93.443,358.5,93.443,358.5s-3.001,7.667,2.499,7.167S106.001,342,106.001,342s-1.872,9,1.868,9.5
			c3.74,0.5,10.074-14.5,18.574-14.167c0,0-5.984,6.697,0.833,7.167C136.942,345.167,146.609,352.167,146.609,352.167z"/>
	</g>
</g>
<g id="Chair">
	<g>
		<path style="fill:#263238;stroke:#263238;stroke-miterlimit:10;" d="M432.352,392.187l-27.934-9.843v-57.051h-10v57.051
			l-27.934,9.843c-0.714,0.251-1.191,0.926-1.191,1.682v1.651c0,1.19,1.144,2.047,2.286,1.711l28.685-8.427l0.521,6.894
			c0.075,0.991,0.901,1.757,1.895,1.757h1.476c0.994,0,1.82-0.766,1.895-1.757l0.521-6.894l28.685,8.427
			c1.142,0.336,2.286-0.521,2.286-1.711v-1.651C433.542,393.112,433.065,392.438,432.352,392.187z"/>
		<path style="fill:#263238;stroke:#263238;stroke-miterlimit:10;" d="M371.078,403.688c0,3.195-2.59,5.786-5.786,5.786
			c-3.195,0-5.786-2.59-5.786-5.786c0-3.195,2.59-5.786,5.786-5.786C368.488,397.902,371.078,400.493,371.078,403.688z"/>
		<path style="fill:#92E3A9;stroke:#263238;stroke-linecap:round;stroke-linejoin:round;stroke-miterlimit:10;" d="M368.335,403.688
			c0,1.681-1.362,3.043-3.043,3.043c-1.681,0-3.043-1.362-3.043-3.043c0-1.68,1.362-3.043,3.043-3.043
			C366.973,400.645,368.335,402.008,368.335,403.688z"/>
		<path style="fill:#263238;stroke:#263238;stroke-miterlimit:10;" d="M405.203,403.688c0,3.195-2.59,5.786-5.786,5.786
			c-3.195,0-5.786-2.59-5.786-5.786c0-3.195,2.59-5.786,5.786-5.786C402.613,397.902,405.203,400.493,405.203,403.688z"/>
		<path style="fill:#92E3A9;stroke:#263238;stroke-linecap:round;stroke-linejoin:round;stroke-miterlimit:10;" d="M402.46,403.688
			c0,1.681-1.362,3.043-3.043,3.043c-1.681,0-3.043-1.362-3.043-3.043c0-1.68,1.362-3.043,3.043-3.043
			C401.098,400.645,402.46,402.008,402.46,403.688z"/>
		<path style="fill:#263238;stroke:#263238;stroke-miterlimit:10;" d="M439.328,403.688c0,3.195-2.59,5.786-5.786,5.786
			c-3.195,0-5.786-2.59-5.786-5.786c0-3.195,2.59-5.786,5.786-5.786C436.738,397.902,439.328,400.493,439.328,403.688z"/>
		<path style="fill:#92E3A9;stroke:#263238;stroke-linecap:round;stroke-linejoin:round;stroke-miterlimit:10;" d="M436.585,403.688
			c0,1.681-1.362,3.043-3.043,3.043c-1.681,0-3.043-1.362-3.043-3.043c0-1.68,1.362-3.043,3.043-3.043
			C435.223,400.645,436.585,402.008,436.585,403.688z"/>
		<rect x="410.875" y="283.103" style="fill:#263238;stroke:#263238;stroke-miterlimit:10;" width="6.542" height="42.086"/>
		<path style="fill:#858585;stroke:#263238;stroke-linecap:round;stroke-linejoin:round;stroke-miterlimit:10;" d="M438.943,298.409
			h-51.052c-2.471,0-4.474-2.003-4.474-4.474V263.55c0-5.239,4.247-9.487,9.487-9.487h41.026c5.239,0,9.487,4.247,9.487,9.487
			v30.385C443.417,296.406,441.414,298.409,438.943,298.409z"/>
		
			<path style="fill:#999999;stroke:#263238;stroke-width:0.75;stroke-linecap:round;stroke-linejoin:round;stroke-miterlimit:10;" d="
			M436.585,293.935V263.55c0-5.239-4.247-9.487-9.487-9.487h-34.194c-5.239,0-9.487,4.247-9.487,9.487v30.385
			c0,2.471,2.003,4.474,4.474,4.474h44.22C434.582,298.409,436.585,296.406,436.585,293.935z"/>
		<path style="fill:#858585;stroke:#263238;stroke-linecap:round;stroke-linejoin:round;stroke-miterlimit:10;" d="M436.419,332.253
			h-55.002v-14.127h50.607c4.479,0,8.111,3.631,8.111,8.111v2.301C440.135,330.589,438.472,332.253,436.419,332.253z"/>
		
			<path style="fill:#999999;stroke:#263238;stroke-width:0.75;stroke-linecap:round;stroke-linejoin:round;stroke-miterlimit:10;" d="
			M413.702,332.253h-51.287c-2.052,0-3.716-1.663-3.716-3.716v-2.301c0-4.479,3.631-8.111,8.111-8.111h42.496
			c4.479,0,8.111,3.631,8.111,8.111v2.301C417.417,330.589,415.754,332.253,413.702,332.253z"/>
	</g>
</g>
<g id="Chart">
	<g>
		<path style="fill:#FFFFFF;" d="M98.16,117.776c-0.306-0.062-0.556,0.302-0.556,0.812c0,59.793,0,119.586,0,179.379
			c0,0.51,0.249,0.874,0.556,0.812c58.135-11.735,116.271-23.469,174.406-35.204c0.306-0.062,0.555-0.365,0.555-0.675
			c0-36.415,0-72.83,0-109.245c0-0.31-0.249-0.613-0.555-0.675C214.431,141.246,156.296,129.511,98.16,117.776z"/>
		<g>
			<g>
				<g>
					<path style="fill:none;stroke:#263238;stroke-width:0.75;stroke-miterlimit:10;" d="M118.783,296.225
						c0-58.632,0-117.263,0-175.895"/>
					<g>
						<path style="fill:none;stroke:#263238;stroke-width:0.75;stroke-miterlimit:10;" d="M163.17,287.098
							c0-52.547,0-105.094,0-157.641"/>
						<path style="fill:none;stroke:#263238;stroke-width:0.75;stroke-miterlimit:10;" d="M140.977,124.894
							c0,55.589,0,111.179,0,166.768"/>
					</g>
					<g>
						<path style="fill:none;stroke:#263238;stroke-width:0.75;stroke-miterlimit:10;" d="M207.557,277.972
							c0-46.463,0-92.926,0-139.389"/>
						<path style="fill:none;stroke:#263238;stroke-width:0.75;stroke-miterlimit:10;" d="M185.363,134.02
							c0,49.505,0,99.01,0,148.515"/>
					</g>
					<g>
						<path style="fill:none;stroke:#263238;stroke-width:0.75;stroke-miterlimit:10;" d="M251.943,268.845
							c0-40.379,0-80.757,0-121.136"/>
						<path style="fill:none;stroke:#263238;stroke-width:0.75;stroke-miterlimit:10;" d="M229.75,143.146
							c0,43.421,0,86.842,0,130.262"/>
					</g>
					<path style="fill:none;stroke:#263238;stroke-width:0.75;stroke-miterlimit:10;" d="M96.59,152.771
						c59.182,7.301,118.364,14.602,177.547,21.904"/>
					<g>
						<path style="fill:none;stroke:#263238;stroke-width:0.75;stroke-miterlimit:10;" d="M274.137,197.077
							c-59.182-2.434-118.365-4.868-177.547-7.301"/>
						<path style="fill:none;stroke:#263238;stroke-width:0.75;stroke-miterlimit:10;" d="M96.59,226.78
							c59.182-2.434,118.364-4.867,177.547-7.301"/>
					</g>
					<path style="fill:none;stroke:#263238;stroke-width:0.75;stroke-miterlimit:10;" d="M274.137,241.88
						c-59.182,7.301-118.365,14.602-177.547,21.904"/>
				</g>
				<g>
					<path style="fill:#FFFFFF;stroke:#263238;stroke-miterlimit:10;" d="M272.566,265.635
						c-58.135,12.172-116.271,24.344-174.406,36.516c-1.425,0.298-2.585-1.397-2.585-3.779c0-60.063,0-120.127,0-180.19
						c0-2.382,1.16-4.077,2.585-3.778c58.135,12.172,116.271,24.344,174.406,36.516c1.425,0.298,2.585,1.707,2.585,3.141
						c0,36.145,0,72.289,0,108.434C275.151,263.928,273.992,265.337,272.566,265.635z M98.16,117.776
						c-0.306-0.062-0.556,0.302-0.556,0.812c0,59.793,0,119.586,0,179.379c0,0.51,0.249,0.874,0.556,0.812
						c58.135-11.735,116.271-23.469,174.406-35.204c0.306-0.062,0.555-0.365,0.555-0.675c0-36.415,0-72.83,0-109.245
						c0-0.31-0.249-0.613-0.555-0.675C214.431,141.246,156.296,129.511,98.16,117.776z"/>
				</g>
				<path style="fill:#92E3A9;stroke:#263238;stroke-linecap:round;stroke-linejoin:round;stroke-miterlimit:10;" d="
					M114.869,295.406c-5.77,1.165-8.656,1.747-14.426,2.912c0-12.229,0-24.458,0-36.687c5.77-0.69,8.655-1.035,14.426-1.725
					C114.869,271.739,114.869,283.573,114.869,295.406z"/>
				<path style="fill:#92E3A9;stroke:#263238;stroke-linecap:round;stroke-linejoin:round;stroke-miterlimit:10;" d="
					M137.062,290.927c-5.77,1.165-8.655,1.747-14.426,2.912c0-15.688,0-31.376,0-47.064c5.77-0.524,8.655-0.786,14.426-1.31
					C137.062,260.619,137.062,275.773,137.062,290.927z"/>
				<path style="fill:#92E3A9;stroke:#263238;stroke-linecap:round;stroke-linejoin:round;stroke-miterlimit:10;" d="
					M159.255,286.447c-5.77,1.165-8.655,1.747-14.426,2.912c0-14.866,0-29.733,0-44.6c5.77-0.524,8.655-0.786,14.426-1.31
					C159.255,257.782,159.255,272.114,159.255,286.447z"/>
				<path style="fill:#92E3A9;stroke:#263238;stroke-linecap:round;stroke-linejoin:round;stroke-miterlimit:10;" d="
					M181.449,281.967c-5.77,1.165-8.655,1.747-14.426,2.912c0-17.166,0-34.333,0-51.499c5.77-0.382,8.655-0.572,14.426-0.954
					C181.449,248.94,181.449,265.453,181.449,281.967z"/>
				<path style="fill:#92E3A9;stroke:#263238;stroke-linecap:round;stroke-linejoin:round;stroke-miterlimit:10;" d="
					M203.642,277.487c-5.77,1.165-8.655,1.747-14.426,2.912c0-19.591,0-39.182,0-58.772c5.77-0.216,8.655-0.323,14.426-0.539
					C203.642,239.888,203.642,258.688,203.642,277.487z"/>
				<path style="fill:#92E3A9;stroke:#263238;stroke-linecap:round;stroke-linejoin:round;stroke-miterlimit:10;" d="
					M225.835,273.008c-5.77,1.165-8.656,1.747-14.426,2.912c0-27.561,0-55.122,0-82.682c5.77,0.259,8.655,0.389,14.426,0.648
					C225.835,220.259,225.835,246.633,225.835,273.008z"/>
				<path style="fill:#92E3A9;stroke:#263238;stroke-linecap:round;stroke-linejoin:round;stroke-miterlimit:10;" d="
					M248.029,268.528c-5.77,1.165-8.655,1.747-14.426,2.912c0-28.738,0-57.476,0-86.214c5.77,0.425,8.655,0.638,14.426,1.063
					C248.029,213.702,248.029,241.115,248.029,268.528z"/>
				<path style="fill:#92E3A9;stroke:#263238;stroke-linecap:round;stroke-linejoin:round;stroke-miterlimit:10;" d="
					M270.222,264.048c-5.77,1.165-8.655,1.747-14.426,2.912c0-31.88,0-63.761,0-95.641c5.77,0.733,8.655,1.1,14.426,1.834
					C270.222,203.451,270.222,233.75,270.222,264.048z"/>
				
					<path style="fill:#999999;stroke:#263238;stroke-width:0.75;stroke-linecap:round;stroke-linejoin:round;stroke-miterlimit:10;" d="
					M265.154,162.822c-4.054-0.655-6.082-0.982-10.136-1.637c-0.765-0.124-1.385,0.449-1.385,1.28c0,0.559,0,0.839,0,1.398
					c0,0.83,0.62,1.594,1.385,1.707c0.458,0.067,0.687,0.101,1.145,0.168c-6.499,3.593-9.749,5.517-16.248,9.62
					c-8.96,2.601-13.44,4.032-22.399,7.153c-7.702,8.794-15.088,17.864-22.193,27.146c-8.686,3.991-13.028,6.108-21.714,10.588
					c-8.745,3.906-13.118,5.966-21.864,10.297c-8.896,0.502-13.344,0.753-22.24,1.254c-9.008,5.38-13.511,8.202-22.519,14.108
					c0.536,2.45,0.804,3.671,1.341,6.106c8.747-5.844,13.121-8.643,21.868-13.991c8.858-0.633,13.288-0.949,22.146-1.582
					c8.991-4.583,13.487-6.762,22.479-10.895c9.087-4.802,13.631-7.069,22.718-11.335c7.106-9.317,14.491-18.422,22.193-27.253
					c8.795-3.154,13.192-4.605,21.987-7.257c6.811-4.362,10.216-6.403,17.027-10.206c-0.262,0.663-0.393,0.995-0.655,1.66
					c-0.284,0.723,0.061,1.629,0.771,2.019c0.478,0.262,0.717,0.393,1.195,0.654c0.71,0.387,1.517,0.117,1.801-0.597
					c1.534-3.851,2.3-5.749,3.834-9.491C265.842,163.363,265.563,162.889,265.154,162.822z"/>
				<path style="fill:#263238;" d="M265.154,160.177c-4.054-0.693-6.082-1.04-10.136-1.733c-0.765-0.131-1.385,0.436-1.385,1.267
					c0,0.559,0,0.839,0,1.398c0,0.83,0.62,1.6,1.385,1.72c0.458,0.072,0.687,0.107,1.145,0.179
					c-6.499,3.532-9.749,5.426-16.248,9.467c-8.96,2.517-13.44,3.905-22.399,6.943c-7.624,8.845-14.959,17.769-22.193,26.937
					c-8.686,3.909-13.028,5.985-21.714,10.383c-8.745,3.824-13.118,5.842-21.864,10.092c-8.896,0.418-13.344,0.627-22.24,1.045
					c-9.008,5.295-13.511,8.075-22.519,13.896c0.536,2.455,0.804,3.679,1.341,6.119c8.747-5.762,13.121-8.519,21.868-13.785
					c8.858-0.55,13.288-0.824,22.146-1.374c8.991-4.498,13.487-6.635,22.479-10.684c9.087-4.716,13.631-6.941,22.718-11.122
					c7.234-9.203,14.57-18.163,22.193-27.045c8.795-3.071,13.192-4.481,21.987-7.051c6.811-4.298,10.216-6.307,17.027-10.046
					c-0.262,0.66-0.393,0.991-0.655,1.654c-0.284,0.72,0.061,1.63,0.771,2.026c0.478,0.267,0.717,0.4,1.195,0.665
					c0.71,0.394,1.517,0.132,1.801-0.58c1.534-3.837,2.3-5.728,3.834-9.455C265.842,160.725,265.563,160.247,265.154,160.177z"/>
			</g>
		</g>
	</g>
</g>
<g id="Character">
	<g>
		<g>
			<polygon style="fill:#FFFFFF;stroke:#263238;stroke-linecap:round;stroke-linejoin:round;stroke-miterlimit:10;" points="
				316.652,385.363 317.277,398.238 328.496,398.238 328.299,384.178 			"/>
			<path style="fill:#263238;stroke:#263238;stroke-miterlimit:10;" d="M316.22,252.113c0,0-1.33,17.053-1.52,22.75
				c-0.035,1.062,0.068,3.19,0,4.25c-0.78,12.214-5,41-4.5,50.75s5.583,58.959,5.583,58.959s7.3,1.561,13.839-1.02
				c0,0,1.285-37.638-1.818-57.539c0,0,3.147-10.15,4.397-22.65s3.807-57.218,3.807-57.218L316.22,252.113z"/>
			<polygon style="fill:#263238;stroke:#263238;stroke-miterlimit:10;" points="314.555,386.975 314.905,391.405 330.671,390.497 
				331.074,385.926 			"/>
			<path style="fill:#92E3A9;stroke:#263238;stroke-linecap:round;stroke-linejoin:round;stroke-miterlimit:10;" d="
				M316.951,396.974h11.793c0.821,0,1.539,0.553,1.749,1.347l2.052,7.78c0.309,1.76-1.045,3.373-2.832,3.373h-29.753
				c-1.055,0-1.604-1.25-0.893-2.029c1.135-1.244,2.923-2.697,5.383-3.221c4.282-0.912,8.705-3.791,11.041-6.582
				C315.851,397.211,316.389,396.974,316.951,396.974z"/>
			<path style="fill:#FFFFFF;stroke:#263238;stroke-linecap:round;stroke-linejoin:round;stroke-miterlimit:10;" d="
				M327.699,407.474c-2.75,0-20.75,0-25.625,0c-1.489,0-2.132-0.303-2.316-0.723c-0.25,0.233-0.486,0.467-0.693,0.693
				c-0.711,0.779-0.161,2.029,0.893,2.029h29.753c1.787,0,3.141-1.613,2.832-3.373l-0.15-0.569
				C331.818,407.476,330.018,407.474,327.699,407.474z"/>
			
				<line style="fill:none;stroke:#7F7F7F;stroke-width:0.75;stroke-linecap:round;stroke-linejoin:round;" x1="327.653" y1="386.153" x2="317.495" y2="386.799"/>
		</g>
		<g>
			<polygon style="fill:#FFFFFF;stroke:#263238;stroke-linecap:round;stroke-linejoin:round;stroke-miterlimit:10;" points="
				344.824,385.363 347.449,398.238 358.668,398.238 357.106,384.113 			"/>
			<path style="fill:#263238;stroke:#263238;stroke-miterlimit:10;" d="M350.848,248.613c0,0,2.683,24-0.104,29.499
				c0,0,1.524,32.04,0.657,52.021c0,0,5.406,17.043,6.769,59.345c0,0-7.322,2.274-13.444,1c0,0-11.859-49.365-12.859-59.031
				c-1-9.667-4.233-48.973-4.233-48.973s-4.797-5.86-4.928-9.86c-0.131-4-1.639-12-1.639-12l0.633-8.5L350.848,248.613z"/>
			<polygon style="fill:#263238;stroke:#263238;stroke-miterlimit:10;" points="342.958,387.6 343.744,392.005 359.478,391.098 
				359.478,386.551 			"/>
			
				<line style="fill:none;stroke:#7F7F7F;stroke-width:0.75;stroke-linecap:round;stroke-linejoin:round;" x1="356.619" y1="386.72" x2="345.816" y2="387.406"/>
			<path style="fill:#92E3A9;stroke:#263238;stroke-linecap:round;stroke-linejoin:round;stroke-miterlimit:10;" d="
				M346.701,396.974h11.793c0.821,0,1.539,0.553,1.749,1.347l2.052,7.78c0.309,1.76-1.045,3.373-2.832,3.373h-29.753
				c-1.055,0-1.604-1.25-0.893-2.029c1.135-1.244,2.923-2.697,5.383-3.221c4.282-0.912,8.705-3.791,11.041-6.582
				C345.601,397.211,346.139,396.974,346.701,396.974z"/>
			<path style="fill:#FFFFFF;stroke:#263238;stroke-linecap:round;stroke-linejoin:round;stroke-miterlimit:10;" d="
				M357.449,407.474c-2.75,0-20.75,0-25.625,0c-1.489,0-2.132-0.303-2.316-0.723c-0.25,0.233-0.486,0.467-0.693,0.693
				c-0.711,0.779-0.161,2.029,0.893,2.029h29.753c1.787,0,3.141-1.613,2.832-3.373l-0.15-0.569
				C361.568,407.476,359.768,407.474,357.449,407.474z"/>
		</g>
		<polygon style="fill:#FFFFFF;stroke:#263238;stroke-linecap:round;stroke-linejoin:round;stroke-miterlimit:10;" points="
			354.387,237.551 360.62,229.746 365.887,235.676 356.762,244.613 		"/>
		<g>
			<path style="fill:#FFFFFF;stroke:#263238;stroke-linecap:round;stroke-linejoin:round;stroke-miterlimit:10;" d="
				M319.822,183.751l-1.373-6c0,0,9.255-14.286,9.579-11.061c1.006,10,6.547,14.862,6.547,14.862l-10.188,1.84L319.822,183.751z"/>
			<path style="fill:#FFFFFF;stroke:#263238;stroke-linecap:round;stroke-linejoin:round;stroke-miterlimit:10;" d="
				M332.533,160.861c-1.074-1.055-2.105-0.592-2.766-0.045c-0.122-5.11-0.484-11.703-0.484-11.703l-2.652-2.25l-7.184-0.5
				l-6.975,1.417l-4.617,2.833c0,0-0.011,1.239,0,1.652c0.038,1.47,0.3,5.874,0.3,5.874s-1.764,22.172,7.682,22.172
				c7.455,0,11.776-7.697,13.323-13.04C332.73,167.046,334.68,162.97,332.533,160.861z"/>
			<path style="fill:none;stroke:#263238;stroke-width:0.75;stroke-linecap:round;stroke-linejoin:round;stroke-miterlimit:10;" d="
				M312.871,160.067c0,0,1.312,2.293-0.898,7.045c0,0,0.874,0.751,2.238,1.001s1.548,1.163,1.548,1.163"/>
			<path style="fill:none;stroke:#263238;stroke-width:0.75;stroke-linecap:round;stroke-linejoin:round;stroke-miterlimit:10;" d="
				M316.258,171.55c0,0,2.632-0.063,4.38-2.156"/>
			<path style="fill:none;stroke:#263238;stroke-width:0.75;stroke-linecap:round;stroke-linejoin:round;stroke-miterlimit:10;" d="
				M306.91,155.43c2.072-0.804,2.683,0.961,4.143,1.111"/>
			<path style="fill:none;stroke:#263238;stroke-width:0.75;stroke-linecap:round;stroke-linejoin:round;stroke-miterlimit:10;" d="
				M314.109,156.351c1.503-0.529,2.153-2.871,4.854-2.111"/>
			<path style="fill:#263238;" d="M310.693,161.082c0,0.674-0.298,1.221-0.665,1.221c-0.368,0-0.665-0.547-0.665-1.221
				c0-0.674,0.298-1.221,0.665-1.221C310.395,159.861,310.693,160.407,310.693,161.082z"/>
			<path style="fill:#263238;" d="M317.52,160.334c0,0.675-0.298,1.221-0.665,1.221c-0.368,0-0.665-0.547-0.665-1.221
				c0-0.674,0.298-1.221,0.665-1.221C317.222,159.113,317.52,159.66,317.52,160.334z"/>
			<g>
				
					<path style="fill:none;stroke:#263238;stroke-width:0.75;stroke-linecap:round;stroke-linejoin:round;stroke-miterlimit:10;" d="
					M312.019,160.598c0.175,2.088-1.081,3.898-2.805,4.043c-1.725,0.145-3.265-1.43-3.441-3.519
					c-0.175-2.088,1.081-3.898,2.805-4.043C310.303,156.935,311.844,158.51,312.019,160.598z"/>
				
					<path style="fill:none;stroke:#263238;stroke-width:0.75;stroke-linecap:round;stroke-linejoin:round;stroke-miterlimit:10;" d="
					M320.975,159.261c0.175,2.088-1.081,3.898-2.805,4.043c-1.725,0.145-3.265-1.43-3.441-3.519
					c-0.175-2.088,1.081-3.898,2.805-4.043S320.8,157.173,320.975,159.261z"/>
				
					<path style="fill:none;stroke:#263238;stroke-width:0.75;stroke-linecap:round;stroke-linejoin:round;stroke-miterlimit:10;" d="
					M312.019,160.598c0,0,0.868-0.829,2.743-0.531"/>
				
					<path style="fill:none;stroke:#263238;stroke-width:0.75;stroke-linecap:round;stroke-linejoin:round;stroke-miterlimit:10;" d="
					M320.975,158.967c0,0,5.292-0.623,6.974-0.152c0.712,0.2,2.426,1.695,2.426,1.695"/>
			</g>
			<g>
				<path style="fill:#263238;stroke:#263238;stroke-linecap:round;stroke-linejoin:round;stroke-miterlimit:10;" d="
					M325.888,148.616c0,0-12.679,8.001-27.892,0.166c0,0,5.283-1.175,8.371-4.002c3.662-3.353,11.859-6.167,21.256,0.49
					c0,0,9.994,3.972,2.956,13.985c-0.843,1.2-1.879,5.558-1.879,5.558l-1.902,0.537c0,0,0.598-4.769-0.167-7.212
					C325.866,155.697,323.993,153.203,325.888,148.616z"/>
				<g>
					<path style="fill:none;stroke:#7F7F7F;stroke-width:0.75;stroke-linecap:round;stroke-linejoin:round;" d="M310.181,149.186
						c4.98-0.193,11.191-0.952,15.851-3.239"/>
					<path style="fill:none;stroke:#7F7F7F;stroke-width:0.75;stroke-linecap:round;stroke-linejoin:round;" d="M301.699,149.03
						c0,0,2.1,0.196,5.21,0.211"/>
					<path style="fill:none;stroke:#7F7F7F;stroke-width:0.75;stroke-linecap:round;stroke-linejoin:round;" d="M307.85,146.709
						c3.049-1.01,8.806-2.411,15.433-1.512"/>
					<path style="fill:none;stroke:#7F7F7F;stroke-width:0.75;stroke-linecap:round;stroke-linejoin:round;" d="M329.52,155.612
						c0.196-4.02-0.987-6.996-0.987-6.996"/>
					<path style="fill:none;stroke:#7F7F7F;stroke-width:0.75;stroke-linecap:round;stroke-linejoin:round;" d="M329.033,158.965
						c0.155-0.628,0.27-1.245,0.35-1.846"/>
				</g>
			</g>
		</g>
		<g>
			<path style="fill:#FFFFFF;stroke:#263238;stroke-linecap:round;stroke-linejoin:round;stroke-miterlimit:10;" d="
				M290.459,175.685l3.99-4.247c0,0,7.75-0.324,9.125-1.324s2.17-3.48,4.741-3.99c2.571-0.51-0.054-2.434-2.554-1.66
				c-2.5,0.774-4.962,2.533-4.563,0c0.399-2.533-1-7.038-0.438-7.538s3.475,2.888,5.112,1.725c1.638-1.163-1.089-2.968-2.819-4.565
				c-1.731-1.597-1.924-1.972-3.14-1.847c-1.216,0.125-3.185,0.362-2.658,2.063c0,0-1.035-0.476-2.211,0.481
				c0,0-1.972-0.606-2.909,0.582c0,0-1.99-0.334-2.745,1.177c-0.755,1.511,0.88,8.811,0,10.348c-0.88,1.537-3.06,3.329-3.06,3.329
				L290.459,175.685z"/>
			<path style="fill:none;stroke:#263238;stroke-width:0.75;stroke-linecap:round;stroke-linejoin:round;stroke-miterlimit:10;" d="
				M295.771,166.155c0,0,2.262-1.352,4.47-0.551"/>
			<path style="fill:none;stroke:#263238;stroke-width:0.75;stroke-linecap:round;stroke-linejoin:round;stroke-miterlimit:10;" d="
				M299.074,154.782c0,0-0.107,0.247,1,1.207"/>
			<path style="fill:none;stroke:#263238;stroke-width:0.75;stroke-linecap:round;stroke-linejoin:round;stroke-miterlimit:10;" d="
				M298.449,155.988c0,0,2.7,3.378,1.792,3.917c-1.169,0.693-2.815-1.458-4.47-3.167c0,0,3.729,3.665,2.428,4.317
				c-1.363,0.683-3.375-2.817-4.917-3.734c0,0,3.067,3.322,1.985,4.333c-1.24,1.159-2.24-3.333-3.86-1.998"/>
		</g>
		<g>
			<path style="fill:none;stroke:#7F7F7F;stroke-width:0.75;stroke-linecap:round;stroke-linejoin:round;" d="M325.482,269.764
				c0.013-1.027,0.007-2.089-0.008-3.097"/>
			<path style="fill:none;stroke:#7F7F7F;stroke-width:0.75;stroke-linecap:round;stroke-linejoin:round;" d="M329.388,305.612
				c-1.012-11.923-1.935-23.139-1.935-23.139s-2.155-3.302-1.953-9.86"/>
			<path style="fill:none;stroke:#7F7F7F;stroke-width:0.75;stroke-linecap:round;stroke-linejoin:round;" d="M330.114,314.1
				c-0.15-1.739-0.303-3.518-0.455-5.302"/>
		</g>
		<g>
			<g>
				<defs>
					<path id="XMLID_1_" d="M319.042,182.535c0,0-7.614,1.038-12.228,3.433c0,0-2.845-1.403-4.355,1.371
						c0,0-10.259,1.285-22.593,4.029c0,0,3.285-3.779,12.917-16.505c0,0-3.958-3.813-5.155-7.614c0,0-27.226,27.734-24.733,33.693
						c2.96,7.074,43.316,0.57,43.316,0.57s3.567,24.921,6.655,38.733c3.088,13.812,2.97,15.058,2.97,15.058
						s10.782,4.304,35.573-2.693c0,0,3.06-23.277,1.592-50.554c0,0,11.365,8.742,16.032,11.982c0,0-7.765,10.99-12.833,20.074
						c0,0,3.605,1.521,6.079,6.554c0,0,22.121-23.887,20.271-30.221c-1.85-6.333-29.018-27.056-29.018-27.056
						s-0.365-3.409-4.265-1.843c0,0-6.526-1.081-15.046-0.674l-9.833,2.517L319.042,182.535z"/>
				</defs>
				<use xlink:href="#XMLID_1_"  style="overflow:visible;fill:#92E3A9;"/>
				<clipPath id="XMLID_00000049919220679426541400000013591226191551073209_">
					<use xlink:href="#XMLID_1_"  style="overflow:visible;"/>
				</clipPath>
				<path style="opacity:0.3;clip-path:url(#XMLID_00000049919220679426541400000013591226191551073209_);" d="M350.848,241.732
					c0,0-4.862,2.623-3.031,6.881c1.831,4.258-15.331,10.242-27.056-3c-11.725-13.242-12.108-51.924-15.379-52.585
					c-3.271-0.66-1.062,5.66-15.613,6.758c-14.551,1.098-11.449-4.098-13.964-4.981c-2.515-0.884-7.152,5.384-10.485,4.981
					c-1.253-0.151-1.775-1.143-1.94-2.323c-0.603,1.471-0.819,2.677-0.483,3.479c2.96,7.074,43.316,0.57,43.316,0.57
					s3.567,24.921,6.655,38.733c3.088,13.812,2.97,15.058,2.97,15.058s10.782,4.304,35.573-2.693c0,0,0.416-3.172,0.868-8.536
					L350.848,241.732z"/>
				<path style="opacity:0.3;clip-path:url(#XMLID_00000049919220679426541400000013591226191551073209_);" d="M371.819,207.355
					c-0.833-5.333-4.667-1.833-7.182-0.833s-8.651-9.167-11.636-9.583c-2.985-0.417,0,5.118,0,5.118s11.365,8.742,16.032,11.982
					c0,0-1.114,1.576-2.771,4.026C370.847,211.578,372.569,212.158,371.819,207.355z"/>
				
					<use xlink:href="#XMLID_1_"  style="overflow:visible;fill:none;stroke:#263238;stroke-linecap:round;stroke-linejoin:round;stroke-miterlimit:10;"/>
			</g>
			<g>
				
					<path style="fill:none;stroke:#263238;stroke-width:0.75;stroke-linecap:round;stroke-linejoin:round;stroke-miterlimit:10;" d="
					M304.931,190.863c0,0,0.286,3.072,0.9,7.884"/>
				<g>
					
						<path style="fill:none;stroke:#263238;stroke-width:0.75;stroke-linecap:round;stroke-linejoin:round;stroke-miterlimit:10;" d="
						M350.485,199.786c-2.32-1.868-1.865-6.522-1.165-9.846"/>
					
						<path style="fill:none;stroke:#263238;stroke-width:0.75;stroke-linecap:round;stroke-linejoin:round;stroke-miterlimit:10;" d="
						M350.302,186.27c0,0-0.225,0.654-0.504,1.683"/>
				</g>
				
					<path style="fill:none;stroke:#263238;stroke-width:0.75;stroke-linecap:round;stroke-linejoin:round;stroke-miterlimit:10;" d="
					M372.699,209.613c-0.615,0.615-1.168,1.225-1.647,1.786c-0.458,0.537-1.333,0.33-1.491-0.358
					c-0.291-1.269-0.579-3.138-0.393-5.094"/>
				
					<path style="fill:none;stroke:#263238;stroke-width:0.75;stroke-linecap:round;stroke-linejoin:round;stroke-miterlimit:10;" d="
					M278.176,193.029c-1.515,1.43-3.41,3.109-4.745,3.91"/>
				<g>
					
						<path style="fill:none;stroke:#263238;stroke-width:0.75;stroke-linecap:round;stroke-linejoin:round;stroke-miterlimit:10;" d="
						M339.574,252.113c-0.675-0.249-1.344-0.539-2.007-0.867"/>
					
						<path style="fill:none;stroke:#263238;stroke-width:0.75;stroke-linecap:round;stroke-linejoin:round;stroke-miterlimit:10;" d="
						M316.411,228.141c3.589,6.083,10.267,16.044,18.179,21.366"/>
					
						<path style="fill:none;stroke:#263238;stroke-width:0.75;stroke-linecap:round;stroke-linejoin:round;stroke-miterlimit:10;" d="
						M313.574,222.988c0,0,0.472,0.958,1.341,2.533"/>
				</g>
			</g>
			<polygon style="fill:#92E3A9;stroke:#263238;stroke-linecap:round;stroke-linejoin:round;stroke-miterlimit:10;" points="
				318.226,181.488 324.478,182.613 334.22,179.442 337.074,181.028 329.806,187.34 324.478,184.113 320.193,187.34 316.52,182.852 
							"/>
			<polygon style="fill:#92E3A9;stroke:#263238;stroke-linecap:round;stroke-linejoin:round;stroke-miterlimit:10;" points="
				284.742,168.111 287.615,165.351 294.793,174.313 292.018,177.75 			"/>
			<polygon style="fill:#92E3A9;stroke:#263238;stroke-linecap:round;stroke-linejoin:round;stroke-miterlimit:10;" points="
				356.814,231.271 354.434,233.97 362.073,243.209 364.637,240.488 			"/>
		</g>
		<g>
			<path style="fill:#FFFFFF;stroke:#263238;stroke-linecap:round;stroke-linejoin:round;stroke-miterlimit:10;" d="
				M354.139,235.067c-0.396-0.726-1.079-2.671-1.905-2.703c-1.517-0.059-3.4,3.233-3.873,4.675c-0.222,0.677-0.704,2.129-0.491,2.81
				c0.109,0.348,0.665,1.085,1.026,1.035c0.628-0.086,0.89-1.684,1.234-2.216c0.431-0.667,2.281-2.411,2.281-2.411
				s-0.909,2.848-1.407,3.592c-0.741,1.107-4.154,4.635-1.135,5.206c0,0-0.559,1.781,1.135,1.695
				c1.693-0.087,3.539-3.022,3.539-3.022s-0.237,0.841-1.075,2.213c-0.728,1.192-2.263,1.445-1.723,1.967
				c0.838,0.81,2.203,0.495,3.487-0.418c1.284-0.912,2.08-1.761,2.588-3.762C358.463,241.199,355.265,237.133,354.139,235.067z"/>
			<path style="fill:none;stroke:#263238;stroke-width:0.75;stroke-linecap:round;stroke-linejoin:round;stroke-miterlimit:10;" d="
				M350.848,244.404c0,0,1.81-1.726,2.665-2.883c0.855-1.158,1.071-2.461,1.071-2.461"/>
		</g>
		<g>
			<g>
				<path style="fill:#92E3A9;" d="M342.5,257.771l-0.426-1.967c-5.056,1.051-9.462,1.584-13.199,1.795v2.041
					C332.729,259.422,337.271,258.868,342.5,257.771z"/>
				<path style="fill:#92E3A9;" d="M325.448,257.709c-2.75,0.022-5.037-0.128-6.852-0.338v2.05c1.72,0.194,3.813,0.335,6.285,0.335
					c0.238,0,0.488-0.004,0.734-0.007L325.448,257.709z"/>
				<path style="fill:#92E3A9;" d="M349.626,253.952c-1.364,0.381-2.7,0.736-3.989,1.049l0.445,1.954
					c1.267-0.309,2.575-0.654,3.911-1.026L349.626,253.952z"/>
				<path style="fill:#92E3A9;" d="M316.059,256.999l-0.312,1.999c0.413,0.077,0.852,0.153,1.349,0.227v-2.052
					C316.718,257.115,316.38,257.057,316.059,256.999z"/>
			</g>
			
				<path style="fill:#FFFFFF;stroke:#263238;stroke-width:0.75;stroke-linecap:round;stroke-linejoin:round;stroke-miterlimit:10;" d="
				M329.975,260.516h-4.449c-0.457,0-0.828-0.371-0.828-0.828v-1.861c0-0.457,0.371-0.828,0.828-0.828h4.449
				c0.457,0,0.828,0.371,0.828,0.828v1.861C330.803,260.145,330.432,260.516,329.975,260.516z"/>
		</g>
	</g>
</g>
</svg>
